<svg width="41" height="41" viewBox="0 0 41 41" fill="none" xmlns="http://www.w3.org/2000/svg">
<path d="M40.4882 20.5878C40.4882 31.6291 31.5295 40.5878 20.4882 40.5878C9.44684 40.5878 0.488159 31.6291 0.488159 20.5878C0.488159 9.54644 9.44684 0.587769 20.4882 0.587769C31.5295 0.587769 40.4882 9.54644 40.4882 20.5878Z" fill="white"/>
<path d="M37.6456 20.5883C37.6456 30.0428 29.9762 37.7453 20.4886 37.7453C11.001 37.7453 3.3316 30.0759 3.3316 20.5883C3.3316 11.1007 11.001 3.43127 20.4886 3.43127C29.9762 3.43127 37.6456 11.1338 37.6456 20.5883Z" fill="#ED1D24"/>
<path d="M30.8351 27.5633C30.8351 28.2575 30.2732 28.8195 29.5789 28.8195C28.8847 28.8195 28.3228 28.2575 28.3228 27.5633C28.3228 26.8691 28.8847 26.3071 29.5789 26.3071C30.3062 26.3071 30.8351 26.8691 30.8351 27.5633Z" fill="white"/>
<path d="M15.3647 28.2567C14.0424 26.8683 15.0672 24.1906 15.2986 21.9426C15.0011 22.2402 12.1912 28.8187 9.61265 28.8187C9.57959 28.8187 9.51348 28.8187 9.48042 28.8187C7.13331 28.5873 7.43084 25.3476 8.15811 23.3972H11.9267C10.7697 26.6038 12.3565 25.2815 13.4474 23.265C15.6292 18.8352 15.6622 18.736 18.0424 12.0583H22.2077C20.9846 15.86 19.9267 19.265 19.4308 23.1988C19.4308 23.3311 19.4969 23.4964 19.6622 23.4302C20.5217 23.298 25.1829 12.7856 25.6126 12.0583H29.7779C29.7779 12.0583 25.3482 24.2898 26.0755 25.4468C26.4391 26.1079 26.935 24.8517 27.3978 24.3559L28.0589 25.017C26.8358 26.3724 25.4474 28.8517 23.4969 28.8517C23.3317 28.8517 23.1994 28.8187 23.0341 28.8187C22.7366 28.7526 22.4391 28.5873 22.2407 28.3889C19.9928 26.4385 24.0589 19.1658 23.6292 18.703C23.4969 18.703 23.3647 19.0666 23.1333 19.5625C21.9102 22.1079 19.0672 28.8517 16.7201 28.8517C16.3234 28.8187 15.7614 28.6864 15.3647 28.2567Z" fill="white"/>
</svg>
