<svg width="36" height="36" viewBox="0 0 36 36" fill="none" xmlns="http://www.w3.org/2000/svg">
<path d="M0.488159 7.15027C0.488159 3.5259 3.42629 0.587769 7.05066 0.587769H28.9257C32.55 0.587769 35.4882 3.5259 35.4882 7.15027V29.0253C35.4882 32.6496 32.55 35.5878 28.9257 35.5878H7.05066C3.42629 35.5878 0.488159 32.6496 0.488159 29.0253V7.15027Z" fill="#78BD20"/>
<path d="M28.8412 9.96289C29.3659 7.08789 28.5587 5.08789 25.2491 5.08789H14.9573L13.9886 10.1296H22.7468C23.2715 10.1296 23.4329 10.4212 23.3522 11.0462L22.2221 17.0462H16.7735L17.5807 12.8796L4.98828 19.1296H14.3519L13.5447 23.2962L21.8185 19.2129L20.7288 25.1296C20.5674 25.7129 20.2848 26.0046 19.6391 26.0046H10.9616L10.0333 31.0879H20.3656C23.6347 31.0879 25.2491 29.0879 25.7335 26.2129L28.8412 9.96289Z" fill="black"/>
</svg>
