<svg width="61" height="61" viewBox="0 0 61 61" fill="none" xmlns="http://www.w3.org/2000/svg">
<path d="M24.4882 22.2873L39.429 30.5878L24.4882 38.8883L24.4882 22.2873Z" stroke="#319559" stroke-width="2"/>
<path fill-rule="evenodd" clip-rule="evenodd" d="M40.4572 9.85464L46.7792 20.8048C46.8975 21.0013 47.0124 21.2002 47.1237 21.4014L50.1181 26.5879L52.2005 22.9811C50.1776 17.2067 45.9163 12.4843 40.4572 9.85464ZM34.758 7.98335C33.3744 7.72362 31.9471 7.58777 30.4882 7.58777C25.6788 7.58777 21.2142 9.06388 17.5228 11.5878H30.4881H36.839L34.758 7.98335ZM53.4243 28.8614L47.12 39.7808C47.0111 39.9775 46.8988 40.172 46.7832 40.3642L43.7673 45.5878H47.9243C51.3919 41.5606 53.4882 36.319 53.4882 30.5878C53.4882 30.007 53.4666 29.4313 53.4243 28.8614ZM43.4536 49.5878H30.4881H24.1375L26.2185 53.1922C27.602 53.4519 29.0292 53.5878 30.4882 53.5878C35.2975 53.5878 39.7621 52.1117 43.4536 49.5878ZM20.5193 51.321L14.204 40.3825C14.0808 40.1782 13.9614 39.9714 13.8459 39.7622L10.8584 34.5877L8.77589 38.1947C10.7988 43.9691 15.0602 48.6913 20.5193 51.321ZM7.55201 32.3146L13.8467 21.4118C13.9617 21.2036 14.0806 20.9979 14.2031 20.7946L17.2092 15.5878H13.052C9.58442 19.6149 7.48816 24.8565 7.48816 30.5878C7.48816 31.1686 7.50969 31.7445 7.55201 32.3146Z" fill="#7981FB"/>
</svg>
