<svg width="61" height="61" viewBox="0 0 61 61" fill="none" xmlns="http://www.w3.org/2000/svg">
<mask id="path-1-inside-1_1_3007" fill="white">
<path d="M3.48816 42.5878C3.48816 50.872 10.2039 57.5878 18.4882 57.5878V59.5878C9.09932 59.5878 1.48816 51.9766 1.48816 42.5878H3.48816Z"/>
<path d="M57.4882 18.5878C57.4882 10.3035 50.7724 3.58777 42.4882 3.58777V1.58777C51.877 1.58777 59.4882 9.19893 59.4882 18.5878H57.4882Z"/>
<path d="M7.48816 42.5878C7.48816 48.6629 12.413 53.5878 18.4882 53.5878V55.5878C11.3085 55.5878 5.48816 49.7675 5.48816 42.5878H7.48816Z"/>
<path d="M53.4882 18.5878C53.4882 12.5126 48.5633 7.58777 42.4882 7.58777V5.58777C49.6679 5.58777 55.4882 11.4081 55.4882 18.5878H53.4882Z"/>
<path d="M42.4882 11.5878C46.3542 11.5878 49.4882 14.7218 49.4882 18.5878H51.4882C51.4882 13.6172 47.4587 9.58777 42.4882 9.58777V11.5878Z"/>
<path d="M18.4882 49.5878C14.6222 49.5878 11.4882 46.4538 11.4882 42.5878H9.48816C9.48816 47.5583 13.5176 51.5878 18.4882 51.5878V49.5878Z"/>
</mask>
<path d="M18.4882 57.5878H20.4882V55.5878H18.4882V57.5878ZM3.48816 42.5878H5.48816V40.5878H3.48816V42.5878ZM42.4882 3.58777H40.4882V5.58777H42.4882V3.58777ZM57.4882 18.5878H55.4882V20.5878H57.4882V18.5878ZM18.4882 59.5878V61.5878H20.4882V59.5878H18.4882ZM1.48816 42.5878V40.5878H-0.511841V42.5878H1.48816ZM42.4882 1.58777V-0.412231H40.4882V1.58777H42.4882ZM59.4882 18.5878V20.5878H61.4882V18.5878H59.4882ZM18.4882 53.5878H20.4882V51.5878H18.4882V53.5878ZM7.48816 42.5878H9.48816V40.5878H7.48816V42.5878ZM42.4882 7.58777H40.4882V9.58777H42.4882V7.58777ZM53.4882 18.5878H51.4882V20.5878H53.4882V18.5878ZM18.4882 55.5878V57.5878H20.4882V55.5878H18.4882ZM5.48816 42.5878V40.5878H3.48816V42.5878H5.48816ZM42.4882 5.58777V3.58777H40.4882V5.58777H42.4882ZM55.4882 18.5878V20.5878H57.4882V18.5878H55.4882ZM49.4882 18.5878H47.4882V20.5878H49.4882V18.5878ZM42.4882 11.5878H40.4882V13.5878H42.4882V11.5878ZM11.4882 42.5878H13.4882V40.5878H11.4882V42.5878ZM18.4882 49.5878H20.4882V47.5878H18.4882V49.5878ZM51.4882 18.5878V20.5878H53.4882V18.5878H51.4882ZM42.4882 9.58777V7.58777H40.4882V9.58777H42.4882ZM9.48816 42.5878V40.5878H7.48816V42.5878H9.48816ZM18.4882 51.5878V53.5878H20.4882V51.5878H18.4882ZM18.4882 55.5878C11.3085 55.5878 5.48816 49.7675 5.48816 42.5878H1.48816C1.48816 51.9766 9.09932 59.5878 18.4882 59.5878V55.5878ZM42.4882 5.58777C49.6679 5.58777 55.4882 11.4081 55.4882 18.5878H59.4882C59.4882 9.19893 51.877 1.58777 42.4882 1.58777V5.58777ZM18.4882 57.5878C10.2039 57.5878 3.48816 50.872 3.48816 42.5878H-0.511841C-0.511841 53.0812 7.99475 61.5878 18.4882 61.5878V57.5878ZM42.4882 3.58777C50.7724 3.58777 57.4882 10.3035 57.4882 18.5878H61.4882C61.4882 8.09436 52.9816 -0.412231 42.4882 -0.412231V3.58777ZM18.4882 51.5878C13.5176 51.5878 9.48816 47.5583 9.48816 42.5878H5.48816C5.48816 49.7675 11.3085 55.5878 18.4882 55.5878V51.5878ZM42.4882 9.58777C47.4587 9.58777 51.4882 13.6172 51.4882 18.5878H55.4882C55.4882 11.4081 49.6679 5.58777 42.4882 5.58777V9.58777ZM18.4882 53.5878C12.413 53.5878 7.48816 48.6629 7.48816 42.5878H3.48816C3.48816 50.872 10.2039 57.5878 18.4882 57.5878V53.5878ZM42.4882 7.58777C48.5633 7.58777 53.4882 12.5126 53.4882 18.5878H57.4882C57.4882 10.3035 50.7724 3.58777 42.4882 3.58777V7.58777ZM51.4882 18.5878C51.4882 13.6172 47.4587 9.58777 42.4882 9.58777V13.5878C45.2496 13.5878 47.4882 15.8263 47.4882 18.5878H51.4882ZM9.48816 42.5878C9.48816 47.5583 13.5176 51.5878 18.4882 51.5878V47.5878C15.7267 47.5878 13.4882 45.3492 13.4882 42.5878H9.48816ZM53.4882 18.5878C53.4882 12.5126 48.5633 7.58777 42.4882 7.58777V11.5878C46.3542 11.5878 49.4882 14.7218 49.4882 18.5878H53.4882ZM7.48816 42.5878C7.48816 48.6629 12.413 53.5878 18.4882 53.5878V49.5878C14.6222 49.5878 11.4882 46.4538 11.4882 42.5878H7.48816ZM11.4882 40.5878H9.48816V44.5878H11.4882V40.5878ZM7.48816 40.5878H5.48816V44.5878H7.48816V40.5878ZM3.48816 40.5878H1.48816V44.5878H3.48816V40.5878ZM16.4882 49.5878V51.5878H20.4882V49.5878H16.4882ZM16.4882 53.5878V55.5878H20.4882V53.5878H16.4882ZM16.4882 57.5878V59.5878H20.4882V57.5878H16.4882ZM49.4882 20.5878H51.4882V16.5878H49.4882V20.5878ZM53.4882 20.5878H55.4882V16.5878H53.4882V20.5878ZM57.4882 20.5878H59.4882V16.5878H57.4882V20.5878ZM44.4882 11.5878V9.58777H40.4882V11.5878H44.4882ZM44.4882 7.58777V5.58777H40.4882V7.58777H44.4882ZM44.4882 3.58777V1.58777H40.4882V3.58777H44.4882Z" fill="#5FBAFF" mask="url(#path-1-inside-1_1_3007)"/>
<path d="M16.4882 20.5878C16.4882 18.3786 18.279 16.5878 20.4882 16.5878H40.4882C42.6973 16.5878 44.4882 18.3786 44.4882 20.5878V40.5878C44.4882 42.7969 42.6973 44.5878 40.4882 44.5878H20.4882C18.279 44.5878 16.4882 42.7969 16.4882 40.5878V20.5878Z" stroke="#E83D43" stroke-width="2"/>
<circle cx="30.4882" cy="30.5878" r="5" stroke="#E83D43" stroke-width="2"/>
<circle cx="37.9882" cy="23.0878" r="1.5" fill="#E83D43"/>
</svg>
